<?xml version="1.0" encoding="UTF-8" standalone="no"?>
<!DOCTYPE svg PUBLIC "-//W3C//DTD SVG 1.1//EN" "http://www.w3.org/Graphics/SVG/1.1/DTD/svg11.dtd">
<svg width="100%" height="100%" viewBox="0 0 842 596" version="1.1" xmlns="http://www.w3.org/2000/svg" xmlns:xlink="http://www.w3.org/1999/xlink" xml:space="preserve" xmlns:serif="http://www.serif.com/" style="fill-rule:evenodd;clip-rule:evenodd;stroke-linejoin:round;stroke-miterlimit:2;">
    <g>
        <path d="M256.75,297.12C233.25,304.38 210.51,312.82 187.98,322.69C232.49,259.91 277.28,197.33 320.33,133.54C321.7,123.36 323.08,113.19 324.45,103.01C276.06,114.07 231.16,131.64 188.47,157.04C182.55,176.65 176.62,196.26 170.69,215.87C181.47,209.21 192.54,203.03 203.85,197.33C206.58,187.16 207.94,182.08 210.67,171.91L210.67,171.93C229.01,162.98 247.58,155.19 266.81,148.34C221.17,217.12 174.6,285.29 128.92,354.04C125.61,364.98 122.3,375.93 118.99,386.87C174.12,353.78 232.92,330.8 295.61,316.69C298.07,298.45 300.53,280.22 302.99,261.99C288.92,265.15 275.04,268.69 261.17,272.65L256.75,297.12Z" style="fill:rgb(254,140,85);fill-rule:nonzero;"/>
        <path d="M467.67,251.5C468.18,261.05 468.44,265.83 468.96,275.38C441.71,273.45 414.79,273.11 387.5,274.37C388.25,254.29 389.01,234.2 389.77,214.12C405.86,213.24 421.99,212.95 438.09,213.5C438.26,222.03 438.35,226.29 438.53,234.82C452.71,235.41 466.79,236.39 480.92,237.77L475.77,164.78C462.89,163.39 449.97,162.5 437.02,162.09C437.19,170.62 437.28,174.88 437.46,183.41C421.9,183.11 406.46,183.31 390.91,184.01C391.66,163.93 392.42,143.84 393.18,123.76C415.83,122.76 438.18,123.03 460.8,124.6C461.31,134.15 461.57,138.93 462.09,148.48C474.74,149.52 487.36,151.04 499.89,153.05C498.02,134.92 496.15,116.8 494.28,98.68C440.55,90.88 387.86,91.63 334.39,101C333.15,111.15 331.92,121.29 330.69,131.44L330.71,131.44C336.13,130.4 338.85,129.92 344.3,129.05C339.06,179.62 333.83,230.19 328.6,280.76C322.03,281.81 318.75,282.39 312.22,283.63C310.98,293.78 309.75,303.92 308.52,314.07C377.7,301.72 446.69,300.75 516.2,311.06C514.33,292.93 512.46,274.81 510.59,256.69C496.3,254.55 482.05,252.83 467.67,251.5Z" style="fill:rgb(254,140,85);fill-rule:nonzero;"/>
        <path d="M705.12,328.01C692.76,320.58 680.26,313.6 667.46,306.96C670.19,317.13 671.55,322.21 674.28,332.38C649.8,320.42 625.02,310.24 599.22,301.48L587.1,239.39C602.34,244.41 617.41,250.02 632.11,256.48C634.29,265.45 635.38,269.94 637.56,278.91C650.48,284.71 663.12,290.86 675.65,297.44C668.35,271.4 661.06,245.36 653.77,219.32C642.42,213.18 630.8,207.53 618.96,202.38C621.14,211.35 622.23,215.84 624.41,224.81C610.1,218.8 595.73,213.34 581.04,208.34C577,187.65 572.96,166.95 568.92,146.25C590.32,153.56 610.89,162.01 631.23,171.9C633.96,182.07 635.32,187.15 638.05,197.32C649.36,203.02 660.43,209.21 671.21,215.86C665.29,196.25 659.36,176.64 653.43,157.03C606.78,129.28 557.63,110.97 504.43,100.42C505.61,110.56 506.8,120.7 507.99,130.84L508,130.84C513.43,131.82 516.13,132.36 521.53,133.51C528.39,184.38 535.26,235.26 542.12,286.13C535.61,284.74 532.35,284.1 525.81,282.9C526.99,293.03 528.18,303.17 529.37,313.31C598.24,326.74 662.67,350.73 722.9,386.84C716.98,367.23 711.05,347.62 705.12,328.01Z" style="fill:rgb(254,140,85);fill-rule:nonzero;"/>
    </g>
    <g>
        <path d="M391.39,379.13C380.32,394.82 371.18,397.72 363.66,397.18C356.03,396.65 354.1,389.34 355.82,381.28C356.25,379.67 357.11,379.24 358.72,380.53C382.68,397.39 400.2,357.63 375.59,356.34C356.84,355.32 344.71,369.9 343.5,382.87C336.63,393.72 334.12,396.53 330.78,395.67C324.34,393.95 342.5,370.2 338.63,360.96C337.02,357.19 332.62,354.94 328.21,355.26C324.88,355.37 321.23,356.66 317.79,358.59C314.89,359.99 313.92,359.66 315.64,356.01C317.79,351.5 320.05,346.56 321.66,343.01C322.84,340.11 323.7,338.6 327.25,338.28C336.71,337.64 341.54,334.2 340.04,330.76C338.64,327.64 329.5,327.32 320.37,331.51C314.57,334.19 309.41,334.3 305.54,333.87C294.57,332.37 283.72,330 273.51,331.4C236.01,336.88 234.29,376.22 249.55,379.44C254.92,380.51 260.4,376.97 259.97,370.95C241.06,373.75 247.29,342.37 273.19,336.67C278.77,335.39 285.01,335.92 291.24,336.89C292.42,337.1 293.71,337.53 292.31,339.36C278.66,356.66 266.19,406.53 241.8,401.69C242.12,404.38 247.38,410.18 253.51,410.29C280.16,407.17 285.64,358.38 299.4,340.97C300.26,339.79 301.12,339.15 302.09,339.04C302.85,338.94 305.43,339.04 307.36,339.26C309.72,339.59 311.87,339.48 309.94,343.67C303.06,358.6 290.49,385.15 286.19,396.54C285.33,400.94 295.86,403.31 297.04,399.44C299.51,392.67 314.67,357.2 325.52,359.89C331.76,361.5 316.93,381.38 316.39,388.8C315.74,397.61 321.87,401.05 328.1,401.16C336.26,401.32 339.82,397.77 344.31,390.92C346.47,397.53 352.57,402.36 363.45,402.12C376.56,401.8 387.31,395.03 395.8,381.49C396.98,379.56 392.89,376.98 391.39,379.13ZM358.62,373.33C362.16,366.88 367.97,360.97 374.2,360.11C383.76,358.93 375.7,389.23 358.94,375.69C357.87,374.94 358.3,374.08 358.62,373.33Z" style="fill:rgb(254,140,85);fill-rule:nonzero;"/>
        <path d="M489.07,332.49C441.57,331.42 437.81,377.2 454.57,380.64C459.84,381.82 465.32,378.17 464.89,372.15C443.83,375.37 454.47,334.64 488.21,336.04C539.47,338.19 497.56,419.65 472.63,402.78C470.69,401.49 470.26,398.05 472.52,395.36C485.42,379.99 491.76,353.24 503.69,346.68C501.11,343.24 496.82,343.24 493.27,345.5C478.76,354.84 469.19,406.64 440.07,403.42C440.61,406.75 446.84,412.77 455.33,410.19C461.24,408.25 462.53,407.39 467.04,408.79C519.48,424.59 547.21,333.78 489.07,332.49Z" style="fill:rgb(254,140,85);fill-rule:nonzero;"/>
        <path d="M621.04,379.05C612.02,393.55 609.33,397.21 605.46,396.24C599.11,394.52 617.17,370.77 613.3,361.53C610.72,355.29 601.37,354.65 596,357.12C593.21,358.3 590.74,360.34 588.05,363.03C587.4,363.78 586.97,363.56 587.51,362.81C588.69,360.76 590.09,358.83 590.52,358.4C590.63,356.46 581.39,352.48 576.66,360.33C573.93,365.24 570.55,372.8 567.01,381.44C563.04,386.98 559.39,390.7 555.27,391.06C554.41,391.17 553.55,390.95 554.52,389.45C561.61,378.59 563.55,363.01 554.52,357.96C532.92,346.03 508.2,390.95 526.9,400.3C533.02,403.42 542.59,402.02 548.5,396.65C549.47,395.79 550.54,395.57 551.51,395.79C555.65,396.49 559,395.75 562.16,393.69C561.73,394.82 561.29,395.94 560.86,397.08C560,401.48 570.53,403.85 571.71,399.98C578.91,382.78 588.69,362.36 597.61,360.43C600.51,359.89 602.55,360.97 601.91,364.19C600.73,370.53 593.53,383.85 592.24,389.44C590.52,396.85 596.54,401.58 602.88,401.69C614.27,401.91 616.64,394.81 625.34,381.38L625.34,381.41C626.52,379.37 622.54,376.69 621.04,379.05ZM542.48,394.07C540.44,396.11 537.43,397.72 534.96,396.54C526.69,392.77 536.36,360.21 550.33,359.46C551.62,359.36 552.59,359.9 550.87,360.76C538.83,366.88 536.25,384.94 542.7,391.28C543.46,392.03 543.78,392.78 542.49,394.07L542.48,394.07ZM548.5,386.76C547.64,388.05 546.99,388.05 546.24,386.76C543.23,379.77 549.68,360.64 555.16,363.33C559.14,365.16 549.57,384.93 548.5,386.76Z" style="fill:rgb(254,140,85);fill-rule:nonzero;"/>
    </g>
    <path d="M420.95,386.86L428.97,421.43C430.69,428.85 436.49,434.65 443.92,436.38L478.49,444.4L443.92,452.42C436.5,454.14 430.7,459.94 428.97,467.37L420.95,501.94L412.93,467.37C411.21,459.95 405.41,454.15 397.98,452.42L363.41,444.4L397.98,436.38C405.4,434.66 411.2,428.86 412.93,421.43L420.95,386.86Z" style="fill:rgb(254,140,85);fill-rule:nonzero;"/>
</svg>
