<?xml version="1.0" encoding="UTF-8"?>
<svg id="Livello_1" xmlns="http://www.w3.org/2000/svg" version="1.1" viewBox="0 0 841.89 595.28">
  <!-- Generator: Adobe Illustrator 29.5.1, SVG Export Plug-In . SVG Version: 2.1.0 Build 141)  -->
  <g>
    <path d="M256.75,297.12c-23.5,7.26-46.24,15.7-68.77,25.57,44.51-62.78,89.3-125.36,132.35-189.15,1.37-10.18,2.75-20.35,4.12-30.53-48.39,11.06-93.29,28.63-135.98,54.03-5.92,19.61-11.85,39.22-17.78,58.83,10.78-6.66,21.85-12.84,33.16-18.54,2.73-10.17,4.09-15.25,6.82-25.42v.02c18.34-8.95,36.91-16.74,56.14-23.59-45.64,68.78-92.21,136.95-137.89,205.7-3.31,10.94-6.62,21.89-9.93,32.83,55.13-33.09,113.93-56.07,176.62-70.18,2.46-18.24,4.92-36.47,7.38-54.7-14.07,3.16-27.95,6.7-41.82,10.66l-4.42,24.47Z"/>
    <path d="M467.67,251.5c.51,9.55.77,14.33,1.29,23.88-27.25-1.93-54.17-2.27-81.46-1.01.75-20.08,1.51-40.17,2.27-60.25,16.09-.88,32.22-1.17,48.32-.62.17,8.53.26,12.79.44,21.32,14.18.59,28.26,1.57,42.39,2.95l-5.15-72.99c-12.88-1.39-25.8-2.28-38.75-2.69.17,8.53.26,12.79.44,21.32-15.56-.3-31-.1-46.55.6.75-20.08,1.51-40.17,2.27-60.25,22.65-1,45-.73,67.62.84.51,9.55.77,14.33,1.29,23.88,12.65,1.04,25.27,2.56,37.8,4.57-1.87-18.13-3.74-36.25-5.61-54.37-53.73-7.8-106.42-7.05-159.89,2.32-1.24,10.15-2.47,20.29-3.7,30.44h.02c5.42-1.04,8.14-1.52,13.59-2.39-5.24,50.57-10.47,101.14-15.7,151.71-6.57,1.05-9.85,1.63-16.38,2.87-1.24,10.15-2.47,20.29-3.7,30.44,69.18-12.35,138.17-13.32,207.68-3.01-1.87-18.13-3.74-36.25-5.61-54.37-14.29-2.14-28.54-3.86-42.92-5.19Z"/>
    <path d="M705.12,328.01c-12.36-7.43-24.86-14.41-37.66-21.05,2.73,10.17,4.09,15.25,6.82,25.42-24.48-11.96-49.26-22.14-75.06-30.9l-12.12-62.09c15.24,5.02,30.31,10.63,45.01,17.09,2.18,8.97,3.27,13.46,5.45,22.43,12.92,5.8,25.56,11.95,38.09,18.53-7.3-26.04-14.59-52.08-21.88-78.12-11.35-6.14-22.97-11.79-34.81-16.94,2.18,8.97,3.27,13.46,5.45,22.43-14.31-6.01-28.68-11.47-43.37-16.47-4.04-20.69-8.08-41.39-12.12-62.09,21.4,7.31,41.97,15.76,62.31,25.65,2.73,10.17,4.09,15.25,6.82,25.42,11.31,5.7,22.38,11.89,33.16,18.54-5.92-19.61-11.85-39.22-17.78-58.83-46.65-27.75-95.8-46.06-149-56.61,1.18,10.14,2.37,20.28,3.56,30.42h.01c5.43.98,8.13,1.52,13.53,2.67,6.86,50.87,13.73,101.75,20.59,152.62-6.51-1.39-9.77-2.03-16.31-3.23,1.18,10.13,2.37,20.27,3.56,30.41,68.87,13.43,133.3,37.42,193.53,73.53-5.92-19.61-11.85-39.22-17.78-58.83Z"/>
  </g>
  <g>
    <path d="M391.39,379.13c-11.07,15.69-20.21,18.59-27.73,18.05-7.63-.53-9.56-7.84-7.84-15.9.43-1.61,1.29-2.04,2.9-.75h0c23.96,16.86,41.48-22.9,16.87-24.19-18.75-1.02-30.88,13.56-32.09,26.53-6.87,10.85-9.38,13.66-12.72,12.8-6.44-1.72,11.72-25.47,7.85-34.71-1.61-3.77-6.01-6.02-10.42-5.7-3.33.11-6.98,1.4-10.42,3.33-2.9,1.4-3.87,1.07-2.15-2.58,2.15-4.51,4.41-9.45,6.02-13,1.18-2.9,2.04-4.41,5.59-4.73,9.46-.64,14.29-4.08,12.79-7.52-1.4-3.12-10.54-3.44-19.67.75-5.8,2.68-10.96,2.79-14.83,2.36-10.97-1.5-21.82-3.87-32.03-2.47-37.5,5.48-39.22,44.82-23.96,48.04,5.37,1.07,10.85-2.47,10.42-8.49-18.91,2.8-12.68-28.58,13.22-34.28,5.58-1.28,11.82-.75,18.05.22,1.18.21,2.47.64,1.07,2.47-13.65,17.3-26.12,67.17-50.51,62.33.32,2.69,5.58,8.49,11.71,8.6,26.65-3.12,32.13-51.91,45.89-69.32.86-1.18,1.72-1.82,2.69-1.93.76-.1,3.34,0,5.27.22,2.36.33,4.51.22,2.58,4.41-6.88,14.93-19.45,41.48-23.75,52.87-.86,4.4,9.67,6.77,10.85,2.9,2.47-6.77,17.63-42.24,28.48-39.55,6.24,1.61-8.59,21.49-9.13,28.91-.65,8.81,5.48,12.25,11.71,12.36,8.16.16,11.72-3.39,16.21-10.24,2.16,6.61,8.26,11.44,19.14,11.2,13.11-.32,23.86-7.09,32.35-20.63,1.18-1.93-2.91-4.51-4.41-2.36ZM358.62,373.33c3.54-6.45,9.35-12.36,15.58-13.22,9.56-1.18,1.5,29.12-15.26,15.58h0c-1.07-.75-.64-1.61-.32-2.36Z"/>
    <path d="M489.07,332.49c-47.5-1.07-51.26,44.71-34.5,48.15,5.27,1.18,10.75-2.47,10.32-8.49-21.06,3.22-10.42-37.51,23.32-36.11,51.26,2.15,9.35,83.61-15.58,66.74-1.94-1.29-2.37-4.73-.11-7.42,12.9-15.37,19.24-42.12,31.17-48.68-2.58-3.44-6.87-3.44-10.42-1.18-14.51,9.34-24.08,61.14-53.2,57.92.54,3.33,6.77,9.35,15.26,6.77,5.91-1.94,7.2-2.8,11.71-1.4h0c52.44,15.8,80.17-75.01,22.03-76.3Z"/>
    <path d="M621.04,379.05c-9.02,14.5-11.71,18.16-15.58,17.19-6.35-1.72,11.71-25.47,7.84-34.71-2.58-6.24-11.93-6.88-17.3-4.41-2.79,1.18-5.26,3.22-7.95,5.91-.65.75-1.08.53-.54-.22,1.18-2.05,2.58-3.98,3.01-4.41.11-1.94-9.13-5.92-13.86,1.93-2.73,4.91-6.11,12.47-9.65,21.11-3.97,5.54-7.62,9.26-11.74,9.62-.86.11-1.72-.11-.75-1.61,7.09-10.86,9.03-26.44,0-31.49-21.6-11.93-46.32,32.99-27.62,42.34,6.12,3.12,15.69,1.72,21.6-3.65.97-.86,2.04-1.08,3.01-.86,4.14.7,7.49-.04,10.65-2.1-.43,1.13-.87,2.25-1.3,3.39-.86,4.4,9.67,6.77,10.85,2.9,7.2-17.2,16.98-37.62,25.9-39.55,2.9-.54,4.94.54,4.3,3.76-1.18,6.34-8.38,19.66-9.67,25.25-1.72,7.41,4.3,12.14,10.64,12.25,11.39.22,13.76-6.88,22.46-20.31v.03c1.18-2.04-2.8-4.72-4.3-2.36ZM542.48,394.07c-2.04,2.04-5.05,3.65-7.52,2.47-8.27-3.77,1.4-36.33,15.37-37.08h0c1.29-.1,2.26.44.54,1.3-12.04,6.12-14.62,24.18-8.17,30.52.76.75,1.08,1.5-.21,2.79ZM548.5,386.76c-.86,1.29-1.51,1.29-2.26,0-3.01-6.99,3.44-26.12,8.92-23.43,3.98,1.83-5.59,21.6-6.66,23.43Z"/>
  </g>
  <path d="M420.95,386.86l8.02,34.57c1.72,7.42,7.52,13.22,14.95,14.95l34.57,8.02-34.57,8.02c-7.42,1.72-13.22,7.52-14.95,14.95l-8.02,34.57-8.02-34.57c-1.72-7.42-7.52-13.22-14.95-14.95l-34.57-8.02,34.57-8.02c7.42-1.72,13.22-7.52,14.95-14.95l8.02-34.57Z"/>
</svg>